<?xml version="1.0" encoding="UTF-8" standalone="no"?>
<!-- Created with Inkscape (http://www.inkscape.org/) -->

<svg
   xmlns:dc="http://purl.org/dc/elements/1.1/"
   xmlns:cc="http://creativecommons.org/ns#"
   xmlns:rdf="http://www.w3.org/1999/02/22-rdf-syntax-ns#"
   xmlns:svg="http://www.w3.org/2000/svg"
   xmlns="http://www.w3.org/2000/svg"
   xmlns:sodipodi="http://sodipodi.sourceforge.net/DTD/sodipodi-0.dtd"
   xmlns:inkscape="http://www.inkscape.org/namespaces/inkscape"
   width="148.52385mm"
   height="241.60165mm"
   viewBox="0 0 148.52385 241.60165"
   version="1.1"
   id="svg8"
   inkscape:version="0.92.0 r15299"
   sodipodi:docname="just.svg">
  <defs
     id="defs2" />
  <sodipodi:namedview
     id="base"
     pagecolor="#ffffff"
     bordercolor="#666666"
     borderopacity="1.0"
     inkscape:pageopacity="0.0"
     inkscape:pageshadow="2"
     inkscape:zoom="0.35"
     inkscape:cx="-180.36544"
     inkscape:cy="490.87068"
     inkscape:document-units="mm"
     inkscape:current-layer="layer1"
     showgrid="false"
     fit-margin-top="0"
     fit-margin-left="0"
     fit-margin-right="0"
     fit-margin-bottom="0"
     inkscape:window-width="1280"
     inkscape:window-height="744"
     inkscape:window-x="-4"
     inkscape:window-y="-4"
     inkscape:window-maximized="1" />
  <metadata
     id="metadata5">
    <rdf:RDF>
      <cc:Work
         rdf:about="">
        <dc:format>image/svg+xml</dc:format>
        <dc:type
           rdf:resource="http://purl.org/dc/dcmitype/StillImage" />
        <dc:title></dc:title>
      </cc:Work>
    </rdf:RDF>
  </metadata>
  <g
     inkscape:label="Layer 1"
     inkscape:groupmode="layer"
     id="layer1"
     transform="translate(-155.5476,-183.00275)">
    <g
       id="g24"
       transform="matrix(0.26458333,0,0,0.26458333,155.5476,183.00276)"
       style="fill:#000000">
      <path
         id="path10"
         d="M 557.54,0 H 3.81 A 3.79,3.79 0 0 0 0,3.77 v 0 905.6 a 3.79,3.79 0 0 0 3.81,3.77 h 553.73 a 3.79,3.79 0 0 0 3.81,-3.77 v 0 V 3.77 A 3.79,3.79 0 0 0 557.54,0 Z M 522.35,874 H 39 V 39 h 483.35 z"
         inkscape:connector-curvature="0"
         style="fill:#000000" />
      <path
         id="path12"
         d="m 454.43,213.48 c 0,13.18 -2.48,25.8 -8.91,37.39 A 57,57 0 0 1 415,277.28 c -12.82,4.83 -26,5.7 -39.53,3.83 -13.78,-1.92 -26,-7.14 -36.06,-17.26 -9.19,-9.29 -14.62,-20.7 -16.84,-33.65 A 105.66,105.66 0 0 1 321,213 c -0.16,-27 -0.07,-53.91 -0.07,-80.87 a 2.19,2.19 0 0 1 0.62,-1.53 2.07,2.07 0 0 1 1.45,-0.6 h 33 a 2.14,2.14 0 0 1 2.11,2.17 v 0 78 c 0,6.26 0.54,12.47 2.83,18.35 4.08,10.45 12,15.4 22.56,16.36 5.84,0.54 11.69,0.25 17.24,-2.06 9.7,-4 14.33,-12 15.9,-22.14 a 73.66,73.66 0 0 0 0.78,-10.91 q 0.09,-38.37 0,-76.75 v -1 a 2.15,2.15 0 0 1 2.12,-2.18 h 32.77 a 2.15,2.15 0 0 1 2.12,2.15 v 0.13 q 0,40.68 0,81.35 v 0 z m 0,140.52 v 33.28 a 2.18,2.18 0 0 1 -2.17,2.18 h -42.83 a 2.17,2.17 0 0 0 -2.18,2.16 v 0 113.44 a 2.17,2.17 0 0 1 -2.16,2.18 h -34.63 a 2.17,2.17 0 0 1 -2.17,-2.17 v 0 -113.31 a 2.18,2.18 0 0 0 -2.18,-2.17 h -43 a 2.19,2.19 0 0 1 -2.18,-2.18 V 354 a 2.18,2.18 0 0 1 2.18,-2.17 h 129.2 a 2.17,2.17 0 0 1 2.15,2.17 z M 233.1,132.37 v 90.25 c 0,10.51 -1.35,20.72 -5.92,30.35 a 47.36,47.36 0 0 1 -29.31,25.67 c -15.86,5.12 -31.75,4.83 -47.22,-1.74 -13.17,-5.59 -22.3,-15.22 -27.39,-28.64 a 67.79,67.79 0 0 1 -4.16,-24.78 v -10.37 a 2.18,2.18 0 0 1 2.18,-2.18 h 33.82 a 2.18,2.18 0 0 1 2.18,2.18 v 0 c 0,2.76 -0.13,5.46 0.07,8.14 a 68.4,68.4 0 0 0 1.6,12.58 c 1.84,6.88 7.31,10.81 14.47,11.06 a 38.66,38.66 0 0 0 8.2,-0.23 c 7.71,-1.36 12,-6.21 12.91,-14.35 a 70.7,70.7 0 0 0 0.49,-8 v -90.23 a 2.17,2.17 0 0 1 2.17,-2.17 h 33.71 a 2.17,2.17 0 0 1 2.17,2.14 2.78,2.78 0 0 1 0,0.32 v 0 z M 240.42,458 c 0,15.12 -6.19,27.76 -17.92,36.57 a 60.19,60.19 0 0 1 -19.57,9.43 87.58,87.58 0 0 1 -24.17,3.21 c -19.55,0 -36,-4.35 -47.51,-12.59 A 45.27,45.27 0 0 1 117.42,479 a 50.28,50.28 0 0 1 -5.64,-21.42 2.41,2.41 0 0 1 2.28,-2.54 h 34.28 a 2.42,2.42 0 0 1 2.4,2.09 c 1,6.66 3.7,11.41 8.32,14.5 4.62,3.09 10.92,4.52 19.5,4.52 11,0 22.78,-3.81 22.78,-14.51 0,-10.7 -10.42,-13.03 -29.34,-17.64 l -2.18,-0.54 c -12.8,-3 -26.15,-6.48 -36.33,-13.2 -11.59,-7.66 -17.23,-18.35 -17.23,-32.7 a 45.87,45.87 0 0 1 4.64,-20.93 39.55,39.55 0 0 1 12.77,-14.54 c 10.3,-7.25 25,-11.08 42.39,-11.08 16.44,0 30.53,3.78 40.74,10.94 a 42.44,42.44 0 0 1 12.85,14.05 47.53,47.53 0 0 1 5.71,20 2.39,2.39 0 0 1 -0.64,1.82 2.46,2.46 0 0 1 -1.78,0.78 h -33.09 a 2.42,2.42 0 0 1 -2.39,-2 17.4,17.4 0 0 0 -7.16,-11.67 c -3.91,-2.74 -9.11,-4.13 -15.47,-4.13 -12.14,0 -20.3,5.16 -20.3,12.85 0,9.46 10.79,11.88 32.29,16.71 l 0.44,0.1 c 15.41,3.59 27.57,7.34 36.88,14 11,7.77 16.28,18.76 16.28,33.54 z"
         inkscape:connector-curvature="0"
         style="fill:#000000" />
    </g>
  </g>
</svg>
